<svg width="71" height="54" viewBox="0 0 71 54" fill="none" xmlns="http://www.w3.org/2000/svg">
<g filter="url(#filter0_d_507_878)">
<path d="M4.5 30.4754C4.5 38.8003 10.6162 45.7661 17.7519 45.7661C24.7176 45.7661 29.9844 40.4993 29.9844 33.7035C29.9844 26.3979 23.5283 21.471 15.0335 20.9613C17.2422 15.5246 20.9799 9.74817 28.2854 2.44264L26.0768 0.234009C11.9754 8.2191 4.5 20.2817 4.5 30.4754ZM40.8577 30.4754C40.8577 38.8003 46.9739 45.7661 54.1095 45.7661C61.0753 45.7661 66.342 40.4993 66.342 33.7035C66.342 26.3979 59.886 21.471 51.3912 20.9613C53.5999 15.5246 57.3376 9.74817 64.6431 2.44264L62.4344 0.234009C48.3331 8.2191 40.8577 20.2817 40.8577 30.4754Z" fill="#2D2D2D"/>
</g>
<defs>
<filter id="filter0_d_507_878" x="0.5" y="0.234009" width="69.842" height="53.532" filterUnits="userSpaceOnUse" color-interpolation-filters="sRGB">
<feFlood flood-opacity="0" result="BackgroundImageFix"/>
<feColorMatrix in="SourceAlpha" type="matrix" values="0 0 0 0 0 0 0 0 0 0 0 0 0 0 0 0 0 0 127 0" result="hardAlpha"/>
<feOffset dy="4"/>
<feGaussianBlur stdDeviation="2"/>
<feComposite in2="hardAlpha" operator="out"/>
<feColorMatrix type="matrix" values="0 0 0 0 0 0 0 0 0 0 0 0 0 0 0 0 0 0 0.25 0"/>
<feBlend mode="normal" in2="BackgroundImageFix" result="effect1_dropShadow_507_878"/>
<feBlend mode="normal" in="SourceGraphic" in2="effect1_dropShadow_507_878" result="shape"/>
</filter>
</defs>
</svg>
